<svg width="25" height="23" viewBox="0 0 25 23" fill="none" xmlns="http://www.w3.org/2000/svg">
<path d="M12.4999 6.29167C12.4999 5.1866 12.0609 4.12679 11.2795 3.34539C10.4981 2.56399 9.43832 2.125 8.33325 2.125H2.08325V17.75H9.37492C10.2037 17.75 10.9986 18.0792 11.5846 18.6653C12.1707 19.2513 12.4999 20.0462 12.4999 20.875M12.4999 6.29167V20.875M12.4999 6.29167C12.4999 5.1866 12.9389 4.12679 13.7203 3.34539C14.5017 2.56399 15.5615 2.125 16.6666 2.125H22.9166V17.75H15.6249C14.7961 17.75 14.0013 18.0792 13.4152 18.6653C12.8292 19.2513 12.4999 20.0462 12.4999 20.875" stroke="#B3B3B3" stroke-width="4" stroke-linecap="round" stroke-linejoin="round"/>
</svg>
