<svg width="25" height="25" viewBox="0 0 25 25" fill="none" xmlns="http://www.w3.org/2000/svg">
<path d="M16.6666 8.33334V13.5417C16.6666 14.3705 16.9958 15.1653 17.5819 15.7514C18.1679 16.3374 18.9628 16.6667 19.7916 16.6667C20.6204 16.6667 21.4153 16.3374 22.0013 15.7514C22.5874 15.1653 22.9166 14.3705 22.9166 13.5417V12.5C22.9164 10.149 22.121 7.86717 20.6596 6.02556C19.1982 4.18395 17.1568 2.89086 14.8673 2.35656C12.5778 1.82226 10.1749 2.07817 8.04925 3.08268C5.92364 4.08718 4.20034 5.78121 3.15957 7.8893C2.1188 9.99739 1.82177 12.3956 2.31677 14.6939C2.81177 16.9922 4.0697 19.0555 5.886 20.5482C7.70231 22.0409 9.97017 22.8754 12.3208 22.9158C14.6715 22.9562 16.9667 22.2003 18.8333 20.7708M16.6666 12.5C16.6666 14.8012 14.8011 16.6667 12.4999 16.6667C10.1987 16.6667 8.33326 14.8012 8.33326 12.5C8.33326 10.1988 10.1987 8.33334 12.4999 8.33334C14.8011 8.33334 16.6666 10.1988 16.6666 12.5Z" stroke="#B3B3B3" stroke-width="4" stroke-linecap="round" stroke-linejoin="round"/>
</svg>
