<svg width="23" height="23" viewBox="0 0 23 23" fill="none" xmlns="http://www.w3.org/2000/svg">
<path d="M20.875 12.3229C20.7112 14.096 20.0457 15.7858 18.9565 17.1946C17.8673 18.6033 16.3995 19.6727 14.7247 20.2776C13.0499 20.8826 11.2375 20.998 9.4995 20.6105C7.7615 20.223 6.1698 19.3485 4.91067 18.0893C3.65154 16.8302 2.77704 15.2385 2.38951 13.5005C2.00197 11.7625 2.11743 9.95009 2.72237 8.27531C3.32731 6.60053 4.39672 5.13267 5.80545 4.04349C7.21418 2.95431 8.90397 2.28886 10.6771 2.125C9.63899 3.52945 9.13945 5.25984 9.26932 7.00147C9.3992 8.7431 10.1499 10.3803 11.3848 11.6152C12.6198 12.8501 14.2569 13.6008 15.9985 13.7307C17.7402 13.8606 19.4706 13.361 20.875 12.3229Z" stroke="#B3B3B3" stroke-width="4" stroke-linecap="round" stroke-linejoin="round"/>
</svg>
